<svg xmlns="http://www.w3.org/2000/svg" viewBox="0 0 64 64">
  <defs>
    <linearGradient id="bg" x1="0" y1="0" x2="1" y2="1">
      <stop offset="0" stop-color="#3aa7f0"/>
      <stop offset="1" stop-color="#087ec6"/>
    </linearGradient>
  </defs>
  <!-- speech bubble body -->
  <path fill="url(#bg)" d="M14 8H50A6 6 0 0 1 56 14V40A6 6 0 0 1 50 46H34L24 58L20 46H14A6 6 0 0 1 8 40V14A6 6 0 0 1 14 8Z"/>
  <!-- top-left highlight -->
  <ellipse cx="20" cy="17" rx="9" ry="6" fill="#ffffff" opacity="0.22" transform="rotate(-24 20 17)"/>
  <!-- graduation cap (mortarboard) -->
  <g fill="#ffffff">
    <path d="M32 13L48 22L32 31L16 22Z"/>
    <circle cx="32" cy="22" r="2.8"/>
    <path d="M32 22L41 34" stroke="#ffffff" stroke-width="2.2" stroke-linecap="round" fill="none"/>
    <circle cx="42" cy="36" r="2.6" fill="#ffffff"/>
  </g>
</svg>
